<svg width="210" height="195" viewBox="0 0 210 195" fill="none" xmlns="http://www.w3.org/2000/svg">
<g filter="url(#filter0_d_1945_9060)">
<ellipse cx="162.631" cy="37.5792" rx="22.9685" ry="22.0258" transform="rotate(0.311958 162.631 37.5792)" fill="#632FD9"/>
<ellipse cx="162.641" cy="35.6935" rx="22.9685" ry="22.0258" transform="rotate(0.311958 162.641 35.6935)" fill="#A17BF9"/>
<path fill-rule="evenodd" clip-rule="evenodd" d="M141.871 25.7819C146.024 18.499 153.79 13.6192 162.658 13.6675C172.093 13.7189 180.218 19.3337 184.046 27.4392C179.893 34.7221 172.128 39.6019 163.26 39.5536C153.825 39.5022 145.7 33.8874 141.871 25.7819Z" fill="#FAFAFA" fill-opacity="0.4"/>
<path d="M181.035 35.7933C180.982 45.473 172.744 53.3461 162.546 53.2906C152.347 53.235 144.195 45.2727 144.248 35.593C144.301 25.9134 152.539 18.0403 162.737 18.0958C172.936 18.1513 181.088 26.1137 181.035 35.7933Z" fill="#A17BF9" stroke="#632FD9" stroke-width="2"/>
<mask id="path-5-inside-1_1945_9060" fill="white">
<path fill-rule="evenodd" clip-rule="evenodd" d="M182.032 35.7988C182.034 35.6848 182.036 35.5705 182.037 35.456C182.093 25.185 173.455 16.8114 162.745 16.7531C152.034 16.6947 143.306 24.9738 143.25 35.2448C143.249 35.3593 143.25 35.4736 143.251 35.5876C143.497 25.4758 152.15 17.381 162.741 17.4387C173.332 17.4963 181.896 25.6849 182.032 35.7988Z"/>
</mask>
<path fill-rule="evenodd" clip-rule="evenodd" d="M182.032 35.7988C182.034 35.6848 182.036 35.5705 182.037 35.456C182.093 25.185 173.455 16.8114 162.745 16.7531C152.034 16.6947 143.306 24.9738 143.25 35.2448C143.249 35.3593 143.25 35.4736 143.251 35.5876C143.497 25.4758 152.15 17.381 162.741 17.4387C173.332 17.4963 181.896 25.6849 182.032 35.7988Z" fill="#A17BF9"/>
<path d="M182.032 35.7988L177.032 35.8658L187.03 35.9202L182.032 35.7988ZM143.251 35.5876L138.252 35.6547L148.25 35.7091L143.251 35.5876ZM177.037 35.4288C177.036 35.5119 177.035 35.5948 177.033 35.6774L187.03 35.9202C187.034 35.7748 187.036 35.6292 187.037 35.4832L177.037 35.4288ZM162.717 21.753C170.866 21.7973 177.077 28.1146 177.037 35.4288L187.037 35.4832C187.109 22.2554 176.044 11.8254 162.772 11.7531L162.717 21.753ZM148.25 35.272C148.29 27.9578 154.569 21.7086 162.717 21.753L162.772 11.7531C149.499 11.6809 138.322 21.9898 138.25 35.2176L148.25 35.272ZM148.251 35.5206C148.25 35.438 148.25 35.3551 148.25 35.272L138.25 35.2176C138.249 35.3635 138.25 35.5092 138.252 35.6547L148.251 35.5206ZM148.25 35.7091C148.425 28.5062 154.658 22.3947 162.714 22.4386L162.768 12.4387C149.641 12.3673 138.569 22.4455 138.253 35.4662L148.25 35.7091ZM162.714 22.4386C170.769 22.4825 176.936 28.6614 177.032 35.8658L187.031 35.7318C186.857 22.7084 175.895 12.5102 162.768 12.4387L162.714 22.4386Z" fill="#632FD9" mask="url(#path-5-inside-1_1945_9060)"/>
</g>
<rect x="-3.92877" y="-1.40706" width="134.978" height="44.5474" rx="3.5" transform="matrix(0.971473 -0.23715 0.600034 0.799974 32.7322 97.9949)" fill="#44B594"/>
<rect x="-3.92877" y="-1.40706" width="134.978" height="44.5474" rx="3.5" transform="matrix(0.971473 -0.23715 0.600034 0.799974 32.7322 97.9949)" stroke="#40AB8C" stroke-width="5"/>
<rect x="-3.92877" y="-1.40706" width="134.978" height="44.5474" rx="3.5" transform="matrix(0.971473 -0.23715 0.600034 0.799974 32.7322 97.9949)" stroke="black" stroke-opacity="0.2" stroke-width="5"/>
<ellipse cx="14.7181" cy="14.8403" rx="14.7181" ry="14.8403" transform="matrix(0.904158 -0.427198 0.878458 0.47782 80.0752 98.959)" fill="#6DFFDD"/>
<ellipse cx="14.7181" cy="14.8403" rx="14.7181" ry="14.8403" transform="matrix(0.904158 -0.427198 0.878458 0.47782 80.0752 98.959)" fill="black" fill-opacity="0.1"/>
<rect x="-3.92877" y="-1.40706" width="134.978" height="44.5474" rx="3.5" transform="matrix(0.971473 -0.23715 0.600034 0.799974 32.7322 87.5339)" fill="#44B594"/>
<rect x="-3.92877" y="-1.40706" width="134.978" height="44.5474" rx="3.5" transform="matrix(0.971473 -0.23715 0.600034 0.799974 32.7322 87.5339)" stroke="#40AB8C" stroke-width="5"/>
<rect x="-3.92877" y="-1.40706" width="134.978" height="44.5474" rx="3.5" transform="matrix(0.971473 -0.23715 0.600034 0.799974 32.7322 87.5339)" stroke="black" stroke-opacity="0.2" stroke-width="5"/>
<ellipse cx="14.7181" cy="14.8403" rx="14.7181" ry="14.8403" transform="matrix(0.904158 -0.427198 0.878458 0.47782 80.0752 88.498)" fill="#6DFFDD"/>
<ellipse cx="14.7181" cy="14.8403" rx="14.7181" ry="14.8403" transform="matrix(0.904158 -0.427198 0.878458 0.47782 80.0752 88.498)" fill="black" fill-opacity="0.1"/>
<rect x="-3.92877" y="-1.40706" width="134.978" height="44.5474" rx="3.5" transform="matrix(0.971473 -0.23715 0.600034 0.799974 32.7322 77.072)" fill="#44B594"/>
<rect x="-3.92877" y="-1.40706" width="134.978" height="44.5474" rx="3.5" transform="matrix(0.971473 -0.23715 0.600034 0.799974 32.7322 77.072)" stroke="#40AB8C" stroke-width="5"/>
<rect x="-3.92877" y="-1.40706" width="134.978" height="44.5474" rx="3.5" transform="matrix(0.971473 -0.23715 0.600034 0.799974 32.7322 77.072)" stroke="black" stroke-opacity="0.2" stroke-width="5"/>
<ellipse cx="14.7181" cy="14.8403" rx="14.7181" ry="14.8403" transform="matrix(0.904158 -0.427198 0.878458 0.47782 80.0752 78.0361)" fill="#6DFFDD"/>
<ellipse cx="14.7181" cy="14.8403" rx="14.7181" ry="14.8403" transform="matrix(0.904158 -0.427198 0.878458 0.47782 80.0752 78.0361)" fill="black" fill-opacity="0.1"/>
<rect x="-3.92877" y="-1.40706" width="134.978" height="44.5474" rx="3.5" transform="matrix(0.971473 -0.23715 0.600034 0.799974 32.7322 66.6111)" fill="#44B594"/>
<rect x="-3.92877" y="-1.40706" width="134.978" height="44.5474" rx="3.5" transform="matrix(0.971473 -0.23715 0.600034 0.799974 32.7322 66.6111)" stroke="#40AB8C" stroke-width="5"/>
<rect x="-3.92877" y="-1.40706" width="134.978" height="44.5474" rx="3.5" transform="matrix(0.971473 -0.23715 0.600034 0.799974 32.7322 66.6111)" stroke="black" stroke-opacity="0.2" stroke-width="5"/>
<ellipse cx="14.7181" cy="14.8403" rx="14.7181" ry="14.8403" transform="matrix(0.904158 -0.427198 0.878458 0.47782 80.0752 67.5752)" fill="#6DFFDD"/>
<ellipse cx="14.7181" cy="14.8403" rx="14.7181" ry="14.8403" transform="matrix(0.904158 -0.427198 0.878458 0.47782 80.0752 67.5752)" fill="black" fill-opacity="0.1"/>
<g filter="url(#filter1_d_1945_9060)">
<ellipse cx="47.2055" cy="137.375" rx="22.9685" ry="22.0258" transform="rotate(16.2172 47.2055 137.375)" fill="#632FD9"/>
<ellipse cx="47.7321" cy="135.564" rx="22.9685" ry="22.0258" transform="rotate(16.2172 47.7321 135.564)" fill="#A17BF9"/>
<path fill-rule="evenodd" clip-rule="evenodd" d="M30.4736 120.339C36.4634 114.474 45.2686 111.909 53.7843 114.385C62.8435 117.02 69.1191 124.647 70.5798 133.491C64.5899 139.357 55.7847 141.922 47.2691 139.445C38.2098 136.811 31.9343 129.184 30.4736 120.339Z" fill="#FAFAFA" fill-opacity="0.4"/>
<path d="M65.3938 140.701C62.6904 149.996 52.61 155.31 42.8173 152.461C33.0247 149.613 27.3669 139.722 30.0702 130.427C32.7736 121.132 42.854 115.818 52.6466 118.666C62.4393 121.515 68.0971 131.406 65.3938 140.701Z" fill="#A17BF9" stroke="#632FD9" stroke-width="2"/>
<mask id="path-19-inside-2_1945_9060" fill="white">
<path fill-rule="evenodd" clip-rule="evenodd" d="M66.3511 140.979C66.385 140.87 66.4179 140.761 66.4499 140.651C69.3184 130.789 63.3065 120.368 53.0219 117.377C42.7372 114.386 32.0745 119.956 29.206 129.819C29.174 129.929 29.1431 130.039 29.1133 130.149C32.1207 120.491 42.6604 115.078 52.8304 118.036C63.0004 120.993 68.9924 131.215 66.3511 140.979Z"/>
</mask>
<path fill-rule="evenodd" clip-rule="evenodd" d="M66.3511 140.979C66.385 140.87 66.4179 140.761 66.4499 140.651C69.3184 130.789 63.3065 120.368 53.0219 117.377C42.7372 114.386 32.0745 119.956 29.206 129.819C29.174 129.929 29.1431 130.039 29.1133 130.149C32.1207 120.491 42.6604 115.078 52.8304 118.036C63.0004 120.993 68.9924 131.215 66.3511 140.979Z" fill="#A17BF9"/>
<path d="M66.3511 140.979L61.5246 139.674L71.125 142.466L66.3511 140.979ZM29.1133 130.149L24.2868 128.843L33.8872 131.635L29.1133 130.149ZM61.6489 139.255C61.6257 139.334 61.6018 139.414 61.5772 139.493L71.125 142.466C71.1682 142.327 71.2102 142.188 71.251 142.047L61.6489 139.255ZM51.6255 122.178C59.4502 124.454 63.6916 132.231 61.6489 139.255L71.251 142.047C74.9453 129.346 67.1628 116.283 54.4183 112.576L51.6255 122.178ZM34.007 131.215C36.0498 124.192 43.8008 119.902 51.6255 122.178L54.4183 112.576C41.6737 108.869 28.0992 115.72 24.4049 128.422L34.007 131.215ZM33.9398 131.454C33.9614 131.375 33.9838 131.295 34.007 131.215L24.4049 128.422C24.3642 128.562 24.3248 128.703 24.2868 128.843L33.9398 131.454ZM33.8872 131.635C36.0295 124.756 43.6989 120.587 51.434 122.837L54.2268 113.234C41.6219 109.568 28.212 116.226 24.3395 128.662L33.8872 131.635ZM51.434 122.837C59.1691 125.086 63.406 132.719 61.5246 139.674L71.1776 142.285C74.5787 129.712 66.8316 116.901 54.2268 113.234L51.434 122.837Z" fill="#632FD9" mask="url(#path-19-inside-2_1945_9060)"/>
</g>
<defs>
<filter id="filter0_d_1945_9060" x="115.543" y="0.542969" width="94.1863" height="94.1865" filterUnits="userSpaceOnUse" color-interpolation-filters="sRGB">
<feFlood flood-opacity="0" result="BackgroundImageFix"/>
<feColorMatrix in="SourceAlpha" type="matrix" values="0 0 0 0 0 0 0 0 0 0 0 0 0 0 0 0 0 0 127 0" result="hardAlpha"/>
<feOffset dy="11"/>
<feGaussianBlur stdDeviation="12"/>
<feComposite in2="hardAlpha" operator="out"/>
<feColorMatrix type="matrix" values="0 0 0 0 0.0791667 0 0 0 0 0.0791667 0 0 0 0 0.0791667 0 0 0 0.25 0"/>
<feBlend mode="normal" in2="BackgroundImageFix" result="effect1_dropShadow_1945_9060"/>
<feBlend mode="normal" in="SourceGraphic" in2="effect1_dropShadow_1945_9060" result="shape"/>
</filter>
<filter id="filter1_d_1945_9060" x="-5.00049" y="95" width="104.938" height="104.938" filterUnits="userSpaceOnUse" color-interpolation-filters="sRGB">
<feFlood flood-opacity="0" result="BackgroundImageFix"/>
<feColorMatrix in="SourceAlpha" type="matrix" values="0 0 0 0 0 0 0 0 0 0 0 0 0 0 0 0 0 0 127 0" result="hardAlpha"/>
<feOffset dy="11"/>
<feGaussianBlur stdDeviation="12"/>
<feComposite in2="hardAlpha" operator="out"/>
<feColorMatrix type="matrix" values="0 0 0 0 0.0791667 0 0 0 0 0.0791667 0 0 0 0 0.0791667 0 0 0 0.25 0"/>
<feBlend mode="normal" in2="BackgroundImageFix" result="effect1_dropShadow_1945_9060"/>
<feBlend mode="normal" in="SourceGraphic" in2="effect1_dropShadow_1945_9060" result="shape"/>
</filter>
</defs>
</svg>
