<svg width="204" height="170" viewBox="0 0 204 170" fill="none" xmlns="http://www.w3.org/2000/svg">
<path d="M79 53L79 13C79 7.47715 83.4772 3 89 3L109 3C114.523 3 119 7.47715 119 13V28.6667" stroke="#A17BF9" stroke-width="5"/>
<rect x="49" y="39.5283" width="91.6149" height="64.2857" rx="5" fill="#53D0AC"/>
<rect x="57.3845" y="48.2236" width="91.6149" height="64.2857" rx="5" fill="#3C9B7F"/>
<rect x="57.3845" y="48.2236" width="72.3602" height="44.0994" rx="5" fill="#A17BF9"/>
<g filter="url(#filter0_d_1945_9136)">
<path d="M87.1255 65.1095C86.0507 61.0089 89.1443 57 93.3834 57C97.3743 57 100.413 60.578 99.7676 64.5162L97.0124 81.3189C96.7864 82.6967 95.5958 83.7081 94.1996 83.7081C92.9037 83.7081 91.7709 82.8339 91.4423 81.5804L87.1255 65.1095Z" fill="white"/>
</g>
<g filter="url(#filter1_d_1945_9136)">
<ellipse cx="156.91" cy="42.5388" rx="22.9685" ry="22.0258" transform="rotate(-16.8357 156.91 42.5388)" fill="#632FD9"/>
<ellipse cx="156.363" cy="40.7341" rx="22.9685" ry="22.0258" transform="rotate(-16.8357 156.363 40.7341)" fill="#A17BF9"/>
<path fill-rule="evenodd" clip-rule="evenodd" d="M133.594 37.3869C135.416 29.2033 141.397 22.251 149.885 19.6824C158.915 16.9499 168.335 19.9195 174.383 26.5359C172.562 34.7195 166.581 41.6718 158.092 44.2404C149.062 46.9729 139.643 44.0033 133.594 37.3869Z" fill="#FAFAFA" fill-opacity="0.4"/>
<path d="M173.969 35.407C176.772 44.672 171.221 54.624 161.46 57.5777C151.699 60.5315 141.562 55.3266 138.758 46.0617C135.955 36.7967 141.505 26.8447 151.267 23.891C161.028 20.9372 171.165 26.1421 173.969 35.407Z" fill="#A17BF9" stroke="#632FD9" stroke-width="2"/>
<mask id="path-10-inside-1_1945_9136" fill="white">
<path fill-rule="evenodd" clip-rule="evenodd" d="M174.923 35.1183C174.892 35.0086 174.86 34.8989 174.826 34.7893C171.852 24.9583 161.129 19.5035 150.878 22.6057C140.626 25.7079 134.727 36.1922 137.702 46.0232C137.735 46.1328 137.769 46.2419 137.804 46.3504C135.057 36.6156 140.939 26.3295 151.076 23.2619C161.214 20.1944 171.811 25.494 174.923 35.1183Z"/>
</mask>
<path fill-rule="evenodd" clip-rule="evenodd" d="M174.923 35.1183C174.892 35.0086 174.86 34.8989 174.826 34.7893C171.852 24.9583 161.129 19.5035 150.878 22.6057C140.626 25.7079 134.727 36.1922 137.702 46.0232C137.735 46.1328 137.769 46.2419 137.804 46.3504C135.057 36.6156 140.939 26.3295 151.076 23.2619C161.214 20.1944 171.811 25.494 174.923 35.1183Z" fill="#A17BF9"/>
<path d="M174.923 35.1183L170.165 36.6564L179.735 33.7606L174.923 35.1183ZM137.804 46.3504L133.046 47.8884L142.616 44.9927L137.804 46.3504ZM170.041 36.2374C170.065 36.317 170.088 36.3965 170.111 36.4761L179.735 33.7606C179.695 33.6206 179.654 33.4808 179.612 33.3411L170.041 36.2374ZM152.326 27.3914C160.125 25.0312 167.922 29.2366 170.041 36.2374L179.612 33.3411C175.781 20.6801 162.133 13.9759 149.429 17.82L152.326 27.3914ZM142.487 44.575C140.369 37.5742 144.526 29.7516 152.326 27.3914L149.429 17.82C136.726 21.6642 129.085 34.8102 132.916 47.4713L142.487 44.575ZM142.562 44.8123C142.536 44.7337 142.511 44.6546 142.487 44.575L132.916 47.4713C132.958 47.611 133.002 47.75 133.046 47.8884L142.562 44.8123ZM142.616 44.9927C140.66 38.0584 144.814 30.3808 152.524 28.0476L149.628 18.4763C137.063 22.2783 129.455 35.1728 132.992 47.7081L142.616 44.9927ZM152.524 28.0476C160.235 25.7145 167.949 29.8008 170.165 36.6564L179.68 33.5803C175.674 21.1872 162.193 14.6742 149.628 18.4763L152.524 28.0476Z" fill="#632FD9" mask="url(#path-10-inside-1_1945_9136)"/>
</g>
<g filter="url(#filter2_d_1945_9136)">
<ellipse cx="47.2604" cy="112.501" rx="22.9685" ry="22.0258" transform="rotate(23.5258 47.2604 112.501)" fill="#632FD9"/>
<ellipse cx="48.0131" cy="110.772" rx="22.9685" ry="22.0258" transform="rotate(23.5258 48.0131 110.772)" fill="#A17BF9"/>
<path fill-rule="evenodd" clip-rule="evenodd" d="M32.8314 93.4767C39.5189 88.4204 48.5788 86.9964 56.7102 90.5364C65.3606 94.3024 70.615 102.665 70.9387 111.624C64.2513 116.68 55.1913 118.104 47.06 114.564C38.4095 110.798 33.1551 102.435 32.8314 93.4767Z" fill="#FAFAFA" fill-opacity="0.4"/>
<path d="M64.878 118.115C61.0141 126.99 50.3396 130.978 40.9889 126.907C31.6381 122.837 27.2846 112.306 31.1484 103.43C35.0123 94.5552 45.6868 90.5668 55.0375 94.6376C64.3883 98.7084 68.7418 109.239 64.878 118.115Z" fill="#A17BF9" stroke="#632FD9" stroke-width="2"/>
<mask id="path-16-inside-2_1945_9136" fill="white">
<path fill-rule="evenodd" clip-rule="evenodd" d="M65.7918 118.512C65.8392 118.409 65.8859 118.304 65.9316 118.199C70.0314 108.782 65.3939 97.6816 55.5734 93.4063C45.7529 89.1309 34.4681 93.2994 30.3683 102.717C30.3226 102.822 30.2779 102.927 30.2344 103.032C34.4459 93.8361 45.5887 89.8072 55.2997 94.0349C65.0108 98.2626 69.6537 109.164 65.7918 118.512Z"/>
</mask>
<path fill-rule="evenodd" clip-rule="evenodd" d="M65.7918 118.512C65.8392 118.409 65.8859 118.304 65.9316 118.199C70.0314 108.782 65.3939 97.6816 55.5734 93.4063C45.7529 89.1309 34.4681 93.2994 30.3683 102.717C30.3226 102.822 30.2779 102.927 30.2344 103.032C34.4459 93.8361 45.5887 89.8072 55.2997 94.0349C65.0108 98.2626 69.6537 109.164 65.7918 118.512Z" fill="#A17BF9"/>
<path d="M65.7918 118.512L61.1706 116.603L70.3378 120.594L65.7918 118.512ZM30.2344 103.032L25.6132 101.123L34.7804 105.114L30.2344 103.032ZM61.3472 116.203C61.314 116.28 61.2802 116.355 61.2458 116.431L70.3378 120.594C70.3983 120.462 70.4577 120.329 70.516 120.195L61.3472 116.203ZM53.5776 97.9907C61.0492 101.243 64.2668 109.497 61.3472 116.203L70.516 120.195C75.7961 108.067 69.7387 94.1198 57.5692 88.8219L53.5776 97.9907ZM34.9527 104.713C37.8723 98.0063 46.106 94.7379 53.5776 97.9907L57.5692 88.8219C45.3998 83.5239 31.064 88.5925 25.7839 100.721L34.9527 104.713ZM34.8556 104.942C34.8871 104.865 34.9195 104.789 34.9527 104.713L25.7839 100.721C25.7256 100.855 25.6687 100.989 25.6132 101.123L34.8556 104.942ZM34.7804 105.114C37.7803 98.5635 45.9179 95.4038 53.3039 98.6193L57.2955 89.4505C45.2595 84.2106 31.1115 89.1087 25.6884 100.951L34.7804 105.114ZM53.3039 98.6193C60.6899 101.835 63.9215 109.944 61.1706 116.603L70.413 120.421C75.3859 108.384 69.3316 94.6904 57.2955 89.4505L53.3039 98.6193Z" fill="#632FD9" mask="url(#path-16-inside-2_1945_9136)"/>
</g>
<defs>
<filter id="filter0_d_1945_9136" x="72.9106" y="48" width="44.9436" height="58.708" filterUnits="userSpaceOnUse" color-interpolation-filters="sRGB">
<feFlood flood-opacity="0" result="BackgroundImageFix"/>
<feColorMatrix in="SourceAlpha" type="matrix" values="0 0 0 0 0 0 0 0 0 0 0 0 0 0 0 0 0 0 127 0" result="hardAlpha"/>
<feOffset dx="2" dy="7"/>
<feGaussianBlur stdDeviation="8"/>
<feComposite in2="hardAlpha" operator="out"/>
<feColorMatrix type="matrix" values="0 0 0 0 0 0 0 0 0 0 0 0 0 0 0 0 0 0 0.25 0"/>
<feBlend mode="normal" in2="BackgroundImageFix" result="effect1_dropShadow_1945_9136"/>
<feBlend mode="normal" in="SourceGraphic" in2="effect1_dropShadow_1945_9136" result="shape"/>
</filter>
<filter id="filter1_d_1945_9136" x="104" y="0" width="105.273" height="105.272" filterUnits="userSpaceOnUse" color-interpolation-filters="sRGB">
<feFlood flood-opacity="0" result="BackgroundImageFix"/>
<feColorMatrix in="SourceAlpha" type="matrix" values="0 0 0 0 0 0 0 0 0 0 0 0 0 0 0 0 0 0 127 0" result="hardAlpha"/>
<feOffset dy="11"/>
<feGaussianBlur stdDeviation="12"/>
<feComposite in2="hardAlpha" operator="out"/>
<feColorMatrix type="matrix" values="0 0 0 0 0.0791667 0 0 0 0 0.0791667 0 0 0 0 0.0791667 0 0 0 0.25 0"/>
<feBlend mode="normal" in2="BackgroundImageFix" result="effect1_dropShadow_1945_9136"/>
<feBlend mode="normal" in="SourceGraphic" in2="effect1_dropShadow_1945_9136" result="shape"/>
</filter>
<filter id="filter2_d_1945_9136" x="-6.59082" y="68.4092" width="108.455" height="108.455" filterUnits="userSpaceOnUse" color-interpolation-filters="sRGB">
<feFlood flood-opacity="0" result="BackgroundImageFix"/>
<feColorMatrix in="SourceAlpha" type="matrix" values="0 0 0 0 0 0 0 0 0 0 0 0 0 0 0 0 0 0 127 0" result="hardAlpha"/>
<feOffset dy="11"/>
<feGaussianBlur stdDeviation="12"/>
<feComposite in2="hardAlpha" operator="out"/>
<feColorMatrix type="matrix" values="0 0 0 0 0.0791667 0 0 0 0 0.0791667 0 0 0 0 0.0791667 0 0 0 0.25 0"/>
<feBlend mode="normal" in2="BackgroundImageFix" result="effect1_dropShadow_1945_9136"/>
<feBlend mode="normal" in="SourceGraphic" in2="effect1_dropShadow_1945_9136" result="shape"/>
</filter>
</defs>
</svg>
