<svg width="212" height="221" viewBox="0 0 212 221" fill="none" xmlns="http://www.w3.org/2000/svg">
<path d="M95.5437 32.3478C82.3637 26.3478 68.0853 20.2826 62.5937 18L56.0037 20.6087L92.6606 32.3478L95.5437 33" stroke="url(#paint0_linear_2972_9054)"/>
<path d="M82.391 1C86.0979 4.26087 100.56 19.6845 128.567 50.9888L134.699 63.9348L123.99 68.5L113.694 52.1957L111.634 47.6304L70.0348 49.913L72.0942 40.1304L107.515 42.7391L105.456 41.1087L58.5023 33.9348L64.6804 28.0652L100.925 33.2826L77.8604 21.8696L84.8623 19.2609L72.0942 8.5L82.391 1Z" fill="#63B13E"/>
<path d="M128.567 50.9888C100.56 19.6845 86.0979 4.26087 82.391 1L72.0942 8.5L84.8623 19.2609L77.8604 21.8696L100.925 33.2826L64.6804 28.0652L58.5023 33.9348L105.456 41.1087L107.515 42.7391L72.0942 40.1304L70.0348 49.913L111.634 47.6304L113.694 52.1957L123.99 68.5L134.699 63.9348L128.521 50.8913" stroke="url(#paint1_linear_2972_9054)"/>
<path d="M135 34.3478C145.435 28.3478 156.739 22.2826 161.087 20L166.304 22.6087L137.283 34.3478L135 35" stroke="url(#paint2_linear_2972_9054)"/>
<path d="M145.413 3C142.478 6.26087 131.029 21.6845 108.855 52.9888L104 65.9348L112.478 70.5L120.63 54.1957L122.261 49.6304L155.196 51.913L153.565 42.1304L125.522 44.7391L127.152 43.1087L164.326 35.9348L159.435 30.0652L130.739 35.2826L149 23.8696L143.457 21.2609L153.565 10.5L145.413 3Z" fill="#63B13E"/>
<path d="M108.855 52.9888C131.029 21.6845 142.478 6.26087 145.413 3L153.565 10.5L143.457 21.2609L149 23.8696L130.739 35.2826L159.435 30.0652L164.326 35.9348L127.152 43.1087L125.522 44.7391L153.565 42.1304L155.196 51.913L122.261 49.6304L120.63 54.1957L112.478 70.5L104 65.9348L108.891 52.8913" stroke="url(#paint3_linear_2972_9054)"/>
<circle cx="117.5" cy="51.5" r="8.5" fill="#F94F46"/>
<circle cx="113.5" cy="47.5" r="1.5" fill="#FF746C"/>
<g filter="url(#filter0_d_2972_9054)">
<circle cx="131.5" cy="50.5049" r="8.5" fill="#FF7428"/>
</g>
<circle cx="135.5" cy="46.5" r="1.5" fill="#FF8D4F"/>
<rect x="125.683" y="41.127" width="2" height="4" transform="rotate(-34.0934 125.683 41.127)" fill="url(#paint4_linear_2972_9054)"/>
<rect x="120.246" y="40" width="2" height="4" transform="rotate(18.1472 120.246 40)" fill="url(#paint5_linear_2972_9054)"/>
<g filter="url(#filter1_d_2972_9054)">
<circle cx="145.5" cy="49.499" r="8.5" fill="#FF7428"/>
</g>
<circle cx="149.5" cy="45.4941" r="1.5" fill="#FF8D4F"/>
<rect x="139.683" y="40.1211" width="2" height="4" transform="rotate(-34.0934 139.683 40.1211)" fill="url(#paint6_linear_2972_9054)"/>
<ellipse cx="18.9519" cy="56.0554" rx="18.9519" ry="56.0554" transform="matrix(0.930263 -0.366893 0.242458 0.970162 64 17.9062)" fill="#EFB940"/>
<ellipse cx="87.0813" cy="29.0995" rx="6" ry="1" transform="rotate(-10.7328 87.0813 29.0995)" fill="#D9D9D9"/>
<ellipse cx="87.9348" cy="33.6368" rx="11.7571" ry="1.5" transform="rotate(-10.7328 87.9348 33.6368)" fill="#D9D9D9"/>
<ellipse cx="89.0813" cy="39.0995" rx="6" ry="1" transform="rotate(-10.7328 89.0813 39.0995)" fill="#D9D9D9"/>
<g filter="url(#filter2_d_2972_9054)">
<ellipse cx="86.9678" cy="53.0751" rx="10" ry="15" transform="rotate(-31.1756 86.9678 53.0751)" fill="#CAA986"/>
</g>
<ellipse cx="86.4408" cy="43.7513" rx="1.875" ry="2.25" transform="rotate(-31.1756 86.4408 43.7513)" fill="#E6C199"/>
<g filter="url(#filter3_d_2972_9054)">
<ellipse cx="70.697" cy="56.6073" rx="10" ry="15" transform="rotate(-31.1756 70.697 56.6073)" fill="#CAA986"/>
</g>
<ellipse cx="70.1701" cy="47.2836" rx="1.875" ry="2.25" transform="rotate(-31.1756 70.1701 47.2836)" fill="#E6C199"/>
<path d="M57.1466 60.2924C57.3547 58.9424 58.4486 57.9034 59.8076 57.765L162.451 47.3106C164.124 47.1402 165.611 48.3787 165.745 50.0555L175.74 174.76C175.88 176.506 174.501 178 172.75 178H42.4979C40.6589 178 39.2528 176.36 39.533 174.543L57.1466 60.2924Z" fill="#7A43F7"/>
<path d="M61.6617 66.215C61.7293 65.7642 62.0932 65.4161 62.5465 65.3687L155.246 55.6578C155.806 55.5991 156.304 56.0136 156.347 56.5746L165.376 172.422C165.421 173.003 164.961 173.5 164.379 173.5H46.7416C46.1303 173.5 45.662 172.956 45.7526 172.352L61.6617 66.215Z" stroke="#B493FF"/>
<g filter="url(#filter4_d_2972_9054)">
<ellipse cx="47.9095" cy="161.539" rx="22.9685" ry="22.0258" transform="rotate(-16.8357 47.9095 161.539)" fill="#632FD9"/>
<ellipse cx="47.3633" cy="159.734" rx="22.9685" ry="22.0258" transform="rotate(-16.8357 47.3633 159.734)" fill="#A17BF9"/>
<path fill-rule="evenodd" clip-rule="evenodd" d="M24.5944 156.387C26.4155 148.203 32.3968 141.251 40.8852 138.682C49.9155 135.95 59.3351 138.919 65.3833 145.536C63.5621 153.719 57.5808 160.672 49.0925 163.24C40.0622 165.973 30.6425 163.003 24.5944 156.387Z" fill="#FAFAFA" fill-opacity="0.4"/>
<path d="M64.9686 154.407C67.7722 163.672 62.2215 173.624 52.4601 176.578C42.6988 179.532 32.5616 174.327 29.7581 165.062C26.9545 155.797 32.5053 145.845 42.2666 142.891C52.0279 139.937 62.1651 145.142 64.9686 154.407Z" fill="#A17BF9" stroke="#632FD9" stroke-width="2"/>
<mask id="path-30-inside-1_2972_9054" fill="white">
<path fill-rule="evenodd" clip-rule="evenodd" d="M65.9226 154.118C65.8917 154.009 65.8596 153.899 65.8264 153.789C62.8516 143.958 52.1293 138.504 41.8776 141.606C31.6259 144.708 25.7268 155.192 28.7016 165.023C28.7348 165.133 28.7689 165.242 28.804 165.35C26.0574 155.616 31.9387 145.33 42.0762 142.262C52.2136 139.194 62.8111 144.494 65.9226 154.118Z"/>
</mask>
<path fill-rule="evenodd" clip-rule="evenodd" d="M65.9226 154.118C65.8917 154.009 65.8596 153.899 65.8264 153.789C62.8516 143.958 52.1293 138.504 41.8776 141.606C31.6259 144.708 25.7268 155.192 28.7016 165.023C28.7348 165.133 28.7689 165.242 28.804 165.35C26.0574 155.616 31.9387 145.33 42.0762 142.262C52.2136 139.194 62.8111 144.494 65.9226 154.118Z" fill="#A17BF9"/>
<path d="M65.9226 154.118L61.1651 155.656L70.7347 152.761L65.9226 154.118ZM28.804 165.35L24.0464 166.888L33.6161 163.993L28.804 165.35ZM61.0407 155.237C61.0648 155.317 61.088 155.397 61.1105 155.476L70.7347 152.761C70.6953 152.621 70.6544 152.481 70.6121 152.341L61.0407 155.237ZM43.3257 146.391C51.1254 144.031 58.9223 148.237 61.0407 155.237L70.6121 152.341C66.7809 139.68 53.1333 132.976 40.4295 136.82L43.3257 146.391ZM33.4873 163.575C31.3688 156.574 35.5261 148.752 43.3257 146.391L40.4295 136.82C27.7257 140.664 20.0847 153.81 23.9159 166.471L33.4873 163.575ZM33.5615 163.812C33.5361 163.734 33.5114 163.655 33.4873 163.575L23.9159 166.471C23.9582 166.611 24.0017 166.75 24.0464 166.888L33.5615 163.812ZM33.6161 163.993C31.6597 157.058 35.814 149.381 43.5243 147.048L40.628 137.476C28.0635 141.278 20.4552 154.173 23.9918 166.708L33.6161 163.993ZM43.5243 147.048C51.2347 144.715 58.9487 148.801 61.1651 155.656L70.6802 152.58C66.6736 140.187 53.1926 133.674 40.628 137.476L43.5243 147.048Z" fill="#632FD9" mask="url(#path-30-inside-1_2972_9054)"/>
</g>
<g filter="url(#filter5_d_2972_9054)">
<ellipse cx="164.91" cy="163.539" rx="22.9685" ry="22.0258" transform="rotate(-16.8357 164.91 163.539)" fill="#632FD9"/>
<ellipse cx="164.363" cy="161.734" rx="22.9685" ry="22.0258" transform="rotate(-16.8357 164.363 161.734)" fill="#A17BF9"/>
<path fill-rule="evenodd" clip-rule="evenodd" d="M141.594 158.387C143.416 150.203 149.397 143.251 157.885 140.682C166.915 137.95 176.335 140.919 182.383 147.536C180.562 155.719 174.581 162.672 166.092 165.24C157.062 167.973 147.643 165.003 141.594 158.387Z" fill="#FAFAFA" fill-opacity="0.4"/>
<path d="M181.969 156.407C184.772 165.672 179.221 175.624 169.46 178.578C159.699 181.532 149.562 176.327 146.758 167.062C143.955 157.797 149.505 147.845 159.267 144.891C169.028 141.937 179.165 147.142 181.969 156.407Z" fill="#A17BF9" stroke="#632FD9" stroke-width="2"/>
<mask id="path-36-inside-2_2972_9054" fill="white">
<path fill-rule="evenodd" clip-rule="evenodd" d="M182.923 156.118C182.892 156.009 182.86 155.899 182.826 155.789C179.852 145.958 169.129 140.504 158.878 143.606C148.626 146.708 142.727 157.192 145.702 167.023C145.735 167.133 145.769 167.242 145.804 167.35C143.057 157.616 148.939 147.33 159.076 144.262C169.214 141.194 179.811 146.494 182.923 156.118Z"/>
</mask>
<path fill-rule="evenodd" clip-rule="evenodd" d="M182.923 156.118C182.892 156.009 182.86 155.899 182.826 155.789C179.852 145.958 169.129 140.504 158.878 143.606C148.626 146.708 142.727 157.192 145.702 167.023C145.735 167.133 145.769 167.242 145.804 167.35C143.057 157.616 148.939 147.33 159.076 144.262C169.214 141.194 179.811 146.494 182.923 156.118Z" fill="#A17BF9"/>
<path d="M182.923 156.118L178.165 157.656L187.735 154.761L182.923 156.118ZM145.804 167.35L141.046 168.888L150.616 165.993L145.804 167.35ZM178.041 157.237C178.065 157.317 178.088 157.397 178.111 157.476L187.735 154.761C187.695 154.621 187.654 154.481 187.612 154.341L178.041 157.237ZM160.326 148.391C168.125 146.031 175.922 150.237 178.041 157.237L187.612 154.341C183.781 141.68 170.133 134.976 157.429 138.82L160.326 148.391ZM150.487 165.575C148.369 158.574 152.526 150.752 160.326 148.391L157.429 138.82C144.726 142.664 137.085 155.81 140.916 168.471L150.487 165.575ZM150.562 165.812C150.536 165.734 150.511 165.655 150.487 165.575L140.916 168.471C140.958 168.611 141.002 168.75 141.046 168.888L150.562 165.812ZM150.616 165.993C148.66 159.058 152.814 151.381 160.524 149.048L157.628 139.476C145.063 143.278 137.455 156.173 140.992 168.708L150.616 165.993ZM160.524 149.048C168.235 146.715 175.949 150.801 178.165 157.656L187.68 154.58C183.674 142.187 170.193 135.674 157.628 139.476L160.524 149.048Z" fill="#632FD9" mask="url(#path-36-inside-2_2972_9054)"/>
</g>
<defs>
<filter id="filter0_d_2972_9054" x="123" y="42.0049" width="17" height="21" filterUnits="userSpaceOnUse" color-interpolation-filters="sRGB">
<feFlood flood-opacity="0" result="BackgroundImageFix"/>
<feColorMatrix in="SourceAlpha" type="matrix" values="0 0 0 0 0 0 0 0 0 0 0 0 0 0 0 0 0 0 127 0" result="hardAlpha"/>
<feOffset dy="4"/>
<feComposite in2="hardAlpha" operator="out"/>
<feColorMatrix type="matrix" values="0 0 0 0 0 0 0 0 0 0 0 0 0 0 0 0 0 0 0.25 0"/>
<feBlend mode="normal" in2="BackgroundImageFix" result="effect1_dropShadow_2972_9054"/>
<feBlend mode="normal" in="SourceGraphic" in2="effect1_dropShadow_2972_9054" result="shape"/>
</filter>
<filter id="filter1_d_2972_9054" x="137" y="40.999" width="17" height="21" filterUnits="userSpaceOnUse" color-interpolation-filters="sRGB">
<feFlood flood-opacity="0" result="BackgroundImageFix"/>
<feColorMatrix in="SourceAlpha" type="matrix" values="0 0 0 0 0 0 0 0 0 0 0 0 0 0 0 0 0 0 127 0" result="hardAlpha"/>
<feOffset dy="4"/>
<feComposite in2="hardAlpha" operator="out"/>
<feColorMatrix type="matrix" values="0 0 0 0 0 0 0 0 0 0 0 0 0 0 0 0 0 0 0.25 0"/>
<feBlend mode="normal" in2="BackgroundImageFix" result="effect1_dropShadow_2972_9054"/>
<feBlend mode="normal" in="SourceGraphic" in2="effect1_dropShadow_2972_9054" result="shape"/>
</filter>
<filter id="filter2_d_2972_9054" x="74.4136" y="39.2334" width="24.1084" height="28.6836" filterUnits="userSpaceOnUse" color-interpolation-filters="sRGB">
<feFlood flood-opacity="0" result="BackgroundImageFix"/>
<feColorMatrix in="SourceAlpha" type="matrix" values="0 0 0 0 0 0 0 0 0 0 0 0 0 0 0 0 0 0 127 0" result="hardAlpha"/>
<feOffset dx="-1" dy="1"/>
<feComposite in2="hardAlpha" operator="out"/>
<feColorMatrix type="matrix" values="0 0 0 0 0.229167 0 0 0 0 0.120219 0 0 0 0 0 0 0 0 1 0"/>
<feBlend mode="normal" in2="BackgroundImageFix" result="effect1_dropShadow_2972_9054"/>
<feBlend mode="normal" in="SourceGraphic" in2="effect1_dropShadow_2972_9054" result="shape"/>
</filter>
<filter id="filter3_d_2972_9054" x="58.1428" y="42.7656" width="24.1084" height="28.6836" filterUnits="userSpaceOnUse" color-interpolation-filters="sRGB">
<feFlood flood-opacity="0" result="BackgroundImageFix"/>
<feColorMatrix in="SourceAlpha" type="matrix" values="0 0 0 0 0 0 0 0 0 0 0 0 0 0 0 0 0 0 127 0" result="hardAlpha"/>
<feOffset dx="-1" dy="1"/>
<feComposite in2="hardAlpha" operator="out"/>
<feColorMatrix type="matrix" values="0 0 0 0 0.229167 0 0 0 0 0.120219 0 0 0 0 0 0 0 0 1 0"/>
<feBlend mode="normal" in2="BackgroundImageFix" result="effect1_dropShadow_2972_9054"/>
<feBlend mode="normal" in="SourceGraphic" in2="effect1_dropShadow_2972_9054" result="shape"/>
</filter>
<filter id="filter4_d_2972_9054" x="-5" y="119" width="105.273" height="105.272" filterUnits="userSpaceOnUse" color-interpolation-filters="sRGB">
<feFlood flood-opacity="0" result="BackgroundImageFix"/>
<feColorMatrix in="SourceAlpha" type="matrix" values="0 0 0 0 0 0 0 0 0 0 0 0 0 0 0 0 0 0 127 0" result="hardAlpha"/>
<feOffset dy="11"/>
<feGaussianBlur stdDeviation="12"/>
<feComposite in2="hardAlpha" operator="out"/>
<feColorMatrix type="matrix" values="0 0 0 0 0.0791667 0 0 0 0 0.0791667 0 0 0 0 0.0791667 0 0 0 0.25 0"/>
<feBlend mode="normal" in2="BackgroundImageFix" result="effect1_dropShadow_2972_9054"/>
<feBlend mode="normal" in="SourceGraphic" in2="effect1_dropShadow_2972_9054" result="shape"/>
</filter>
<filter id="filter5_d_2972_9054" x="112" y="121" width="105.273" height="105.272" filterUnits="userSpaceOnUse" color-interpolation-filters="sRGB">
<feFlood flood-opacity="0" result="BackgroundImageFix"/>
<feColorMatrix in="SourceAlpha" type="matrix" values="0 0 0 0 0 0 0 0 0 0 0 0 0 0 0 0 0 0 127 0" result="hardAlpha"/>
<feOffset dy="11"/>
<feGaussianBlur stdDeviation="12"/>
<feComposite in2="hardAlpha" operator="out"/>
<feColorMatrix type="matrix" values="0 0 0 0 0.0791667 0 0 0 0 0.0791667 0 0 0 0 0.0791667 0 0 0 0.25 0"/>
<feBlend mode="normal" in2="BackgroundImageFix" result="effect1_dropShadow_2972_9054"/>
<feBlend mode="normal" in="SourceGraphic" in2="effect1_dropShadow_2972_9054" result="shape"/>
</filter>
<linearGradient id="paint0_linear_2972_9054" x1="75.7737" y1="18" x2="77.0845" y2="40.0461" gradientUnits="userSpaceOnUse">
<stop stop-color="#52FF00"/>
<stop offset="1" stop-color="#00BE85" stop-opacity="0"/>
</linearGradient>
<linearGradient id="paint1_linear_2972_9054" x1="96.6007" y1="1" x2="96.6007" y2="68.5" gradientUnits="userSpaceOnUse">
<stop stop-color="#00BE85"/>
<stop offset="1" stop-color="#00BE85" stop-opacity="0"/>
</linearGradient>
<linearGradient id="paint2_linear_2972_9054" x1="150.652" y1="20" x2="149" y2="42" gradientUnits="userSpaceOnUse">
<stop stop-color="#52FF00"/>
<stop offset="1" stop-color="#00BE85" stop-opacity="0"/>
</linearGradient>
<linearGradient id="paint3_linear_2972_9054" x1="134.163" y1="3" x2="134.163" y2="70.5" gradientUnits="userSpaceOnUse">
<stop stop-color="#00BE85"/>
<stop offset="1" stop-color="#00BE85" stop-opacity="0"/>
</linearGradient>
<linearGradient id="paint4_linear_2972_9054" x1="126.683" y1="41.127" x2="126.941" y2="47.8628" gradientUnits="userSpaceOnUse">
<stop offset="0.417566"/>
<stop offset="1" stop-opacity="0"/>
</linearGradient>
<linearGradient id="paint5_linear_2972_9054" x1="121.246" y1="40" x2="121.504" y2="46.7358" gradientUnits="userSpaceOnUse">
<stop offset="0.417566"/>
<stop offset="1" stop-opacity="0"/>
</linearGradient>
<linearGradient id="paint6_linear_2972_9054" x1="140.683" y1="40.1211" x2="140.94" y2="46.8569" gradientUnits="userSpaceOnUse">
<stop offset="0.417566"/>
<stop offset="1" stop-opacity="0"/>
</linearGradient>
</defs>
</svg>
