<svg width="250" height="250" viewBox="0 0 250 250" fill="none" xmlns="http://www.w3.org/2000/svg">
<circle cx="125" cy="125" r="125" fill="#F6F2FF"/>
<g filter="url(#filter0_d_1945_9057)">
<ellipse cx="185.631" cy="78.5792" rx="22.9685" ry="22.0258" transform="rotate(0.311958 185.631 78.5792)" fill="#632FD9"/>
<ellipse cx="185.641" cy="76.6935" rx="22.9685" ry="22.0258" transform="rotate(0.311958 185.641 76.6935)" fill="#A17BF9"/>
<path fill-rule="evenodd" clip-rule="evenodd" d="M164.871 66.7819C169.024 59.499 176.79 54.6192 185.658 54.6675C195.093 54.7189 203.218 60.3337 207.046 68.4392C202.893 75.7221 195.128 80.6019 186.26 80.5536C176.825 80.5022 168.7 74.8874 164.871 66.7819Z" fill="#FAFAFA" fill-opacity="0.4"/>
<path d="M204.035 76.7933C203.982 86.473 195.744 94.3461 185.546 94.2906C175.347 94.235 167.195 86.2727 167.248 76.593C167.301 66.9134 175.539 59.0403 185.737 59.0958C195.936 59.1513 204.088 67.1137 204.035 76.7933Z" fill="#A17BF9" stroke="#632FD9" stroke-width="2"/>
<mask id="path-6-inside-1_1945_9057" fill="white">
<path fill-rule="evenodd" clip-rule="evenodd" d="M205.032 76.7988C205.034 76.6848 205.036 76.5705 205.037 76.456C205.093 66.185 196.455 57.8114 185.745 57.7531C175.034 57.6947 166.306 65.9738 166.25 76.2448C166.249 76.3593 166.25 76.4736 166.251 76.5876C166.497 66.4758 175.15 58.381 185.741 58.4387C196.332 58.4963 204.896 66.6849 205.032 76.7988Z"/>
</mask>
<path fill-rule="evenodd" clip-rule="evenodd" d="M205.032 76.7988C205.034 76.6848 205.036 76.5705 205.037 76.456C205.093 66.185 196.455 57.8114 185.745 57.7531C175.034 57.6947 166.306 65.9738 166.25 76.2448C166.249 76.3593 166.25 76.4736 166.251 76.5876C166.497 66.4758 175.15 58.381 185.741 58.4387C196.332 58.4963 204.896 66.6849 205.032 76.7988Z" fill="#A17BF9"/>
<path d="M205.032 76.7988L200.032 76.8658L210.03 76.9202L205.032 76.7988ZM166.251 76.5876L161.252 76.6547L171.25 76.7091L166.251 76.5876ZM200.037 76.4288C200.036 76.5119 200.035 76.5948 200.033 76.6774L210.03 76.9202C210.034 76.7748 210.036 76.6292 210.037 76.4832L200.037 76.4288ZM185.717 62.753C193.866 62.7973 200.077 69.1146 200.037 76.4288L210.037 76.4832C210.109 63.2554 199.044 52.8254 185.772 52.7531L185.717 62.753ZM171.25 76.272C171.29 68.9578 177.569 62.7086 185.717 62.753L185.772 52.7531C172.499 52.6809 161.322 62.9898 161.25 76.2176L171.25 76.272ZM171.251 76.5206C171.25 76.438 171.25 76.3551 171.25 76.272L161.25 76.2176C161.249 76.3635 161.25 76.5092 161.252 76.6547L171.251 76.5206ZM171.25 76.7091C171.425 69.5062 177.658 63.3947 185.714 63.4386L185.768 53.4387C172.641 53.3673 161.569 63.4455 161.253 76.4662L171.25 76.7091ZM185.714 63.4386C193.769 63.4825 199.936 69.6614 200.032 76.8658L210.031 76.7318C209.857 63.7084 198.895 53.5102 185.768 53.4387L185.714 63.4386Z" fill="#632FD9" mask="url(#path-6-inside-1_1945_9057)"/>
</g>
<rect x="-3.92877" y="-1.40706" width="134.978" height="44.5474" rx="3.5" transform="matrix(0.971473 -0.23715 0.600034 0.799974 55.7322 138.995)" fill="#44B594"/>
<rect x="-3.92877" y="-1.40706" width="134.978" height="44.5474" rx="3.5" transform="matrix(0.971473 -0.23715 0.600034 0.799974 55.7322 138.995)" stroke="#40AB8C" stroke-width="5"/>
<rect x="-3.92877" y="-1.40706" width="134.978" height="44.5474" rx="3.5" transform="matrix(0.971473 -0.23715 0.600034 0.799974 55.7322 138.995)" stroke="black" stroke-opacity="0.2" stroke-width="5"/>
<ellipse cx="14.7181" cy="14.8403" rx="14.7181" ry="14.8403" transform="matrix(0.904158 -0.427198 0.878458 0.47782 103.075 139.959)" fill="#6DFFDD"/>
<ellipse cx="14.7181" cy="14.8403" rx="14.7181" ry="14.8403" transform="matrix(0.904158 -0.427198 0.878458 0.47782 103.075 139.959)" fill="black" fill-opacity="0.1"/>
<rect x="-3.92877" y="-1.40706" width="134.978" height="44.5474" rx="3.5" transform="matrix(0.971473 -0.23715 0.600034 0.799974 55.7322 128.534)" fill="#44B594"/>
<rect x="-3.92877" y="-1.40706" width="134.978" height="44.5474" rx="3.5" transform="matrix(0.971473 -0.23715 0.600034 0.799974 55.7322 128.534)" stroke="#40AB8C" stroke-width="5"/>
<rect x="-3.92877" y="-1.40706" width="134.978" height="44.5474" rx="3.5" transform="matrix(0.971473 -0.23715 0.600034 0.799974 55.7322 128.534)" stroke="black" stroke-opacity="0.2" stroke-width="5"/>
<ellipse cx="14.7181" cy="14.8403" rx="14.7181" ry="14.8403" transform="matrix(0.904158 -0.427198 0.878458 0.47782 103.075 129.498)" fill="#6DFFDD"/>
<ellipse cx="14.7181" cy="14.8403" rx="14.7181" ry="14.8403" transform="matrix(0.904158 -0.427198 0.878458 0.47782 103.075 129.498)" fill="black" fill-opacity="0.1"/>
<rect x="-3.92877" y="-1.40706" width="134.978" height="44.5474" rx="3.5" transform="matrix(0.971473 -0.23715 0.600034 0.799974 55.7322 118.072)" fill="#44B594"/>
<rect x="-3.92877" y="-1.40706" width="134.978" height="44.5474" rx="3.5" transform="matrix(0.971473 -0.23715 0.600034 0.799974 55.7322 118.072)" stroke="#40AB8C" stroke-width="5"/>
<rect x="-3.92877" y="-1.40706" width="134.978" height="44.5474" rx="3.5" transform="matrix(0.971473 -0.23715 0.600034 0.799974 55.7322 118.072)" stroke="black" stroke-opacity="0.2" stroke-width="5"/>
<ellipse cx="14.7181" cy="14.8403" rx="14.7181" ry="14.8403" transform="matrix(0.904158 -0.427198 0.878458 0.47782 103.075 119.036)" fill="#6DFFDD"/>
<ellipse cx="14.7181" cy="14.8403" rx="14.7181" ry="14.8403" transform="matrix(0.904158 -0.427198 0.878458 0.47782 103.075 119.036)" fill="black" fill-opacity="0.1"/>
<rect x="-3.92877" y="-1.40706" width="134.978" height="44.5474" rx="3.5" transform="matrix(0.971473 -0.23715 0.600034 0.799974 55.7322 107.611)" fill="#44B594"/>
<rect x="-3.92877" y="-1.40706" width="134.978" height="44.5474" rx="3.5" transform="matrix(0.971473 -0.23715 0.600034 0.799974 55.7322 107.611)" stroke="#40AB8C" stroke-width="5"/>
<rect x="-3.92877" y="-1.40706" width="134.978" height="44.5474" rx="3.5" transform="matrix(0.971473 -0.23715 0.600034 0.799974 55.7322 107.611)" stroke="black" stroke-opacity="0.2" stroke-width="5"/>
<ellipse cx="14.7181" cy="14.8403" rx="14.7181" ry="14.8403" transform="matrix(0.904158 -0.427198 0.878458 0.47782 103.075 108.575)" fill="#6DFFDD"/>
<ellipse cx="14.7181" cy="14.8403" rx="14.7181" ry="14.8403" transform="matrix(0.904158 -0.427198 0.878458 0.47782 103.075 108.575)" fill="black" fill-opacity="0.1"/>
<g filter="url(#filter1_d_1945_9057)">
<ellipse cx="70.2055" cy="178.375" rx="22.9685" ry="22.0258" transform="rotate(16.2172 70.2055 178.375)" fill="#632FD9"/>
<ellipse cx="70.7321" cy="176.564" rx="22.9685" ry="22.0258" transform="rotate(16.2172 70.7321 176.564)" fill="#A17BF9"/>
<path fill-rule="evenodd" clip-rule="evenodd" d="M53.4736 161.339C59.4634 155.474 68.2686 152.909 76.7843 155.385C85.8435 158.02 92.1191 165.647 93.5798 174.491C87.5899 180.357 78.7847 182.922 70.2691 180.445C61.2098 177.811 54.9343 170.184 53.4736 161.339Z" fill="#FAFAFA" fill-opacity="0.4"/>
<path d="M88.3938 181.701C85.6904 190.996 75.61 196.31 65.8173 193.461C56.0247 190.613 50.3669 180.722 53.0702 171.427C55.7736 162.132 65.854 156.818 75.6466 159.666C85.4393 162.515 91.0971 172.406 88.3938 181.701Z" fill="#A17BF9" stroke="#632FD9" stroke-width="2"/>
<mask id="path-20-inside-2_1945_9057" fill="white">
<path fill-rule="evenodd" clip-rule="evenodd" d="M89.3511 181.979C89.385 181.87 89.4179 181.761 89.4499 181.651C92.3184 171.789 86.3065 161.368 76.0219 158.377C65.7372 155.386 55.0745 160.956 52.206 170.819C52.174 170.929 52.1431 171.039 52.1133 171.149C55.1207 161.491 65.6604 156.078 75.8304 159.036C86.0004 161.993 91.9924 172.215 89.3511 181.979Z"/>
</mask>
<path fill-rule="evenodd" clip-rule="evenodd" d="M89.3511 181.979C89.385 181.87 89.4179 181.761 89.4499 181.651C92.3184 171.789 86.3065 161.368 76.0219 158.377C65.7372 155.386 55.0745 160.956 52.206 170.819C52.174 170.929 52.1431 171.039 52.1133 171.149C55.1207 161.491 65.6604 156.078 75.8304 159.036C86.0004 161.993 91.9924 172.215 89.3511 181.979Z" fill="#A17BF9"/>
<path d="M89.3511 181.979L84.5246 180.674L94.125 183.466L89.3511 181.979ZM52.1133 171.149L47.2868 169.843L56.8872 172.635L52.1133 171.149ZM84.6489 180.255C84.6257 180.334 84.6018 180.414 84.5772 180.493L94.125 183.466C94.1682 183.327 94.2102 183.188 94.251 183.047L84.6489 180.255ZM74.6255 163.178C82.4502 165.454 86.6916 173.231 84.6489 180.255L94.251 183.047C97.9453 170.346 90.1628 157.283 77.4183 153.576L74.6255 163.178ZM57.007 172.215C59.0498 165.192 66.8008 160.902 74.6255 163.178L77.4183 153.576C64.6737 149.869 51.0992 156.72 47.4049 169.422L57.007 172.215ZM56.9398 172.454C56.9614 172.375 56.9838 172.295 57.007 172.215L47.4049 169.422C47.3642 169.562 47.3248 169.703 47.2868 169.843L56.9398 172.454ZM56.8872 172.635C59.0295 165.756 66.6989 161.587 74.434 163.837L77.2268 154.234C64.6219 150.568 51.212 157.226 47.3395 169.662L56.8872 172.635ZM74.434 163.837C82.1691 166.086 86.406 173.719 84.5246 180.674L94.1776 183.285C97.5787 170.712 89.8316 157.901 77.2268 154.234L74.434 163.837Z" fill="#632FD9" mask="url(#path-20-inside-2_1945_9057)"/>
</g>
<defs>
<filter id="filter0_d_1945_9057" x="138.543" y="41.543" width="94.1863" height="94.1865" filterUnits="userSpaceOnUse" color-interpolation-filters="sRGB">
<feFlood flood-opacity="0" result="BackgroundImageFix"/>
<feColorMatrix in="SourceAlpha" type="matrix" values="0 0 0 0 0 0 0 0 0 0 0 0 0 0 0 0 0 0 127 0" result="hardAlpha"/>
<feOffset dy="11"/>
<feGaussianBlur stdDeviation="12"/>
<feComposite in2="hardAlpha" operator="out"/>
<feColorMatrix type="matrix" values="0 0 0 0 0.0791667 0 0 0 0 0.0791667 0 0 0 0 0.0791667 0 0 0 0.25 0"/>
<feBlend mode="normal" in2="BackgroundImageFix" result="effect1_dropShadow_1945_9057"/>
<feBlend mode="normal" in="SourceGraphic" in2="effect1_dropShadow_1945_9057" result="shape"/>
</filter>
<filter id="filter1_d_1945_9057" x="17.9995" y="136" width="104.938" height="104.938" filterUnits="userSpaceOnUse" color-interpolation-filters="sRGB">
<feFlood flood-opacity="0" result="BackgroundImageFix"/>
<feColorMatrix in="SourceAlpha" type="matrix" values="0 0 0 0 0 0 0 0 0 0 0 0 0 0 0 0 0 0 127 0" result="hardAlpha"/>
<feOffset dy="11"/>
<feGaussianBlur stdDeviation="12"/>
<feComposite in2="hardAlpha" operator="out"/>
<feColorMatrix type="matrix" values="0 0 0 0 0.0791667 0 0 0 0 0.0791667 0 0 0 0 0.0791667 0 0 0 0.25 0"/>
<feBlend mode="normal" in2="BackgroundImageFix" result="effect1_dropShadow_1945_9057"/>
<feBlend mode="normal" in="SourceGraphic" in2="effect1_dropShadow_1945_9057" result="shape"/>
</filter>
</defs>
</svg>
