<svg width="250" height="250" viewBox="0 0 250 250" fill="none" xmlns="http://www.w3.org/2000/svg">
<circle cx="125" cy="125" r="125" fill="#F4FDF4"/>
<path d="M108 105L108 65C108 59.4772 112.477 55 118 55L138 55C143.523 55 148 59.4771 148 65V80.6667" stroke="#A17BF9" stroke-width="5"/>
<rect x="78" y="91.5283" width="91.6149" height="64.2857" rx="5" fill="#53D0AC"/>
<rect x="86.3845" y="100.224" width="91.6149" height="64.2857" rx="5" fill="#3C9B7F"/>
<rect x="86.3845" y="100.224" width="72.3602" height="44.0994" rx="5" fill="#A17BF9"/>
<g filter="url(#filter0_d_1945_9133)">
<path d="M116.125 117.11C115.051 113.009 118.144 109 122.383 109C126.374 109 129.413 112.578 128.768 116.516L126.012 133.319C125.786 134.697 124.596 135.708 123.2 135.708C121.904 135.708 120.771 134.834 120.442 133.58L116.125 117.11Z" fill="white"/>
</g>
<g filter="url(#filter1_d_1945_9133)">
<ellipse cx="185.91" cy="94.5388" rx="22.9685" ry="22.0258" transform="rotate(-16.8357 185.91 94.5388)" fill="#632FD9"/>
<ellipse cx="185.363" cy="92.7341" rx="22.9685" ry="22.0258" transform="rotate(-16.8357 185.363 92.7341)" fill="#A17BF9"/>
<path fill-rule="evenodd" clip-rule="evenodd" d="M162.594 89.3869C164.416 81.2033 170.397 74.251 178.885 71.6824C187.915 68.9499 197.335 71.9195 203.383 78.5359C201.562 86.7195 195.581 93.6718 187.092 96.2404C178.062 98.9729 168.643 96.0033 162.594 89.3869Z" fill="#FAFAFA" fill-opacity="0.4"/>
<path d="M202.969 87.407C205.772 96.672 200.221 106.624 190.46 109.578C180.699 112.532 170.562 107.327 167.758 98.0617C164.955 88.7967 170.505 78.8447 180.267 75.891C190.028 72.9372 200.165 78.1421 202.969 87.407Z" fill="#A17BF9" stroke="#632FD9" stroke-width="2"/>
<mask id="path-11-inside-1_1945_9133" fill="white">
<path fill-rule="evenodd" clip-rule="evenodd" d="M203.923 87.1183C203.892 87.0086 203.86 86.8989 203.826 86.7893C200.852 76.9583 190.129 71.5035 179.878 74.6057C169.626 77.7079 163.727 88.1922 166.702 98.0232C166.735 98.1328 166.769 98.2419 166.804 98.3504C164.057 88.6156 169.939 78.3295 180.076 75.2619C190.214 72.1944 200.811 77.494 203.923 87.1183Z"/>
</mask>
<path fill-rule="evenodd" clip-rule="evenodd" d="M203.923 87.1183C203.892 87.0086 203.86 86.8989 203.826 86.7893C200.852 76.9583 190.129 71.5035 179.878 74.6057C169.626 77.7079 163.727 88.1922 166.702 98.0232C166.735 98.1328 166.769 98.2419 166.804 98.3504C164.057 88.6156 169.939 78.3295 180.076 75.2619C190.214 72.1944 200.811 77.494 203.923 87.1183Z" fill="#A17BF9"/>
<path d="M203.923 87.1183L199.165 88.6564L208.735 85.7606L203.923 87.1183ZM166.804 98.3504L162.046 99.8884L171.616 96.9927L166.804 98.3504ZM199.041 88.2374C199.065 88.317 199.088 88.3965 199.111 88.4761L208.735 85.7606C208.695 85.6206 208.654 85.4808 208.612 85.3411L199.041 88.2374ZM181.326 79.3914C189.125 77.0312 196.922 81.2366 199.041 88.2374L208.612 85.3411C204.781 72.6801 191.133 65.9759 178.429 69.82L181.326 79.3914ZM171.487 96.575C169.369 89.5742 173.526 81.7516 181.326 79.3914L178.429 69.82C165.726 73.6642 158.085 86.8102 161.916 99.4713L171.487 96.575ZM171.562 96.8123C171.536 96.7337 171.511 96.6546 171.487 96.575L161.916 99.4713C161.958 99.611 162.002 99.75 162.046 99.8884L171.562 96.8123ZM171.616 96.9927C169.66 90.0584 173.814 82.3808 181.524 80.0476L178.628 70.4763C166.063 74.2783 158.455 87.1728 161.992 99.7081L171.616 96.9927ZM181.524 80.0476C189.235 77.7145 196.949 81.8008 199.165 88.6564L208.68 85.5803C204.674 73.1872 191.193 66.6742 178.628 70.4763L181.524 80.0476Z" fill="#632FD9" mask="url(#path-11-inside-1_1945_9133)"/>
</g>
<g filter="url(#filter2_d_1945_9133)">
<ellipse cx="76.2604" cy="164.501" rx="22.9685" ry="22.0258" transform="rotate(23.5258 76.2604 164.501)" fill="#632FD9"/>
<ellipse cx="77.0131" cy="162.772" rx="22.9685" ry="22.0258" transform="rotate(23.5258 77.0131 162.772)" fill="#A17BF9"/>
<path fill-rule="evenodd" clip-rule="evenodd" d="M61.8314 145.477C68.5189 140.42 77.5788 138.996 85.7102 142.536C94.3606 146.302 99.615 154.665 99.9387 163.624C93.2513 168.68 84.1913 170.104 76.06 166.564C67.4095 162.798 62.1551 154.435 61.8314 145.477Z" fill="#FAFAFA" fill-opacity="0.4"/>
<path d="M93.878 170.115C90.0141 178.99 79.3396 182.978 69.9889 178.907C60.6381 174.837 56.2846 164.306 60.1484 155.43C64.0123 146.555 74.6868 142.567 84.0375 146.638C93.3883 150.708 97.7418 161.239 93.878 170.115Z" fill="#A17BF9" stroke="#632FD9" stroke-width="2"/>
<mask id="path-17-inside-2_1945_9133" fill="white">
<path fill-rule="evenodd" clip-rule="evenodd" d="M94.7918 170.512C94.8392 170.409 94.8859 170.304 94.9316 170.199C99.0314 160.782 94.3939 149.682 84.5734 145.406C74.7529 141.131 63.4681 145.299 59.3683 154.717C59.3226 154.822 59.2779 154.927 59.2344 155.032C63.4459 145.836 74.5887 141.807 84.2997 146.035C94.0108 150.263 98.6537 161.164 94.7918 170.512Z"/>
</mask>
<path fill-rule="evenodd" clip-rule="evenodd" d="M94.7918 170.512C94.8392 170.409 94.8859 170.304 94.9316 170.199C99.0314 160.782 94.3939 149.682 84.5734 145.406C74.7529 141.131 63.4681 145.299 59.3683 154.717C59.3226 154.822 59.2779 154.927 59.2344 155.032C63.4459 145.836 74.5887 141.807 84.2997 146.035C94.0108 150.263 98.6537 161.164 94.7918 170.512Z" fill="#A17BF9"/>
<path d="M94.7918 170.512L90.1706 168.603L99.3378 172.594L94.7918 170.512ZM59.2344 155.032L54.6132 153.123L63.7804 157.114L59.2344 155.032ZM90.3472 168.203C90.314 168.28 90.2802 168.355 90.2458 168.431L99.3378 172.594C99.3983 172.462 99.4577 172.329 99.516 172.195L90.3472 168.203ZM82.5776 149.991C90.0492 153.243 93.2668 161.497 90.3472 168.203L99.516 172.195C104.796 160.067 98.7387 146.12 86.5692 140.822L82.5776 149.991ZM63.9527 156.713C66.8723 150.006 75.106 146.738 82.5776 149.991L86.5692 140.822C74.3998 135.524 60.064 140.592 54.7839 152.721L63.9527 156.713ZM63.8556 156.942C63.8871 156.865 63.9195 156.789 63.9527 156.713L54.7839 152.721C54.7256 152.855 54.6687 152.989 54.6132 153.123L63.8556 156.942ZM63.7804 157.114C66.7803 150.564 74.9179 147.404 82.3039 150.619L86.2955 141.45C74.2595 136.211 60.1115 141.109 54.6884 152.951L63.7804 157.114ZM82.3039 150.619C89.6899 153.835 92.9215 161.944 90.1706 168.603L99.413 172.421C104.386 160.384 98.3316 146.69 86.2955 141.45L82.3039 150.619Z" fill="#632FD9" mask="url(#path-17-inside-2_1945_9133)"/>
</g>
<defs>
<filter id="filter0_d_1945_9133" x="101.911" y="100" width="44.9436" height="58.708" filterUnits="userSpaceOnUse" color-interpolation-filters="sRGB">
<feFlood flood-opacity="0" result="BackgroundImageFix"/>
<feColorMatrix in="SourceAlpha" type="matrix" values="0 0 0 0 0 0 0 0 0 0 0 0 0 0 0 0 0 0 127 0" result="hardAlpha"/>
<feOffset dx="2" dy="7"/>
<feGaussianBlur stdDeviation="8"/>
<feComposite in2="hardAlpha" operator="out"/>
<feColorMatrix type="matrix" values="0 0 0 0 0 0 0 0 0 0 0 0 0 0 0 0 0 0 0.25 0"/>
<feBlend mode="normal" in2="BackgroundImageFix" result="effect1_dropShadow_1945_9133"/>
<feBlend mode="normal" in="SourceGraphic" in2="effect1_dropShadow_1945_9133" result="shape"/>
</filter>
<filter id="filter1_d_1945_9133" x="133" y="52" width="105.273" height="105.272" filterUnits="userSpaceOnUse" color-interpolation-filters="sRGB">
<feFlood flood-opacity="0" result="BackgroundImageFix"/>
<feColorMatrix in="SourceAlpha" type="matrix" values="0 0 0 0 0 0 0 0 0 0 0 0 0 0 0 0 0 0 127 0" result="hardAlpha"/>
<feOffset dy="11"/>
<feGaussianBlur stdDeviation="12"/>
<feComposite in2="hardAlpha" operator="out"/>
<feColorMatrix type="matrix" values="0 0 0 0 0.0791667 0 0 0 0 0.0791667 0 0 0 0 0.0791667 0 0 0 0.25 0"/>
<feBlend mode="normal" in2="BackgroundImageFix" result="effect1_dropShadow_1945_9133"/>
<feBlend mode="normal" in="SourceGraphic" in2="effect1_dropShadow_1945_9133" result="shape"/>
</filter>
<filter id="filter2_d_1945_9133" x="22.4092" y="120.409" width="108.455" height="108.455" filterUnits="userSpaceOnUse" color-interpolation-filters="sRGB">
<feFlood flood-opacity="0" result="BackgroundImageFix"/>
<feColorMatrix in="SourceAlpha" type="matrix" values="0 0 0 0 0 0 0 0 0 0 0 0 0 0 0 0 0 0 127 0" result="hardAlpha"/>
<feOffset dy="11"/>
<feGaussianBlur stdDeviation="12"/>
<feComposite in2="hardAlpha" operator="out"/>
<feColorMatrix type="matrix" values="0 0 0 0 0.0791667 0 0 0 0 0.0791667 0 0 0 0 0.0791667 0 0 0 0.25 0"/>
<feBlend mode="normal" in2="BackgroundImageFix" result="effect1_dropShadow_1945_9133"/>
<feBlend mode="normal" in="SourceGraphic" in2="effect1_dropShadow_1945_9133" result="shape"/>
</filter>
</defs>
</svg>
